<svg height="512pt" viewBox="0 -28 512 512" width="512pt" xmlns="http://www.w3.org/2000/svg"><path d="m466.449219 0h-420.898438c-25.117187 0-45.550781 20.433594-45.550781 45.550781v45.460938c0 4.199219 3.402344 7.601562 7.605469 7.601562 4.199219 0 7.601562-3.402343 7.601562-7.601562v-45.460938c0-16.730469 13.613281-30.34375 30.34375-30.34375h420.898438c16.730469 0 30.34375 13.613281 30.34375 30.34375v253.375h-69.445313c-4.199218 0-7.601562 3.40625-7.601562 7.605469s3.402344 7.605469 7.601562 7.605469h69.445313v17.742187c0 16.730469-13.613281 30.34375-30.34375 30.34375h-420.898438c-16.730469 0-30.34375-13.613281-30.34375-30.34375v-17.742187h386.792969c4.199219 0 7.601562-3.40625 7.601562-7.605469s-3.402343-7.605469-7.601562-7.605469h-386.792969v-182.566406c0-4.199219-3.402343-7.605469-7.601562-7.605469-4.203125 0-7.605469 3.40625-7.605469 7.605469v215.519531c0 25.117188 20.433594 45.550782 45.550781 45.550782h128.613281l-22.945312 63.875h-52.46875c-4.203125 0-7.605469 3.402343-7.605469 7.601562s3.402344 7.605469 7.605469 7.605469h314.5c4.203125 0 7.605469-3.40625 7.605469-7.605469s-3.402344-7.601562-7.605469-7.601562h-52.46875l-22.945312-63.875h128.613281c25.117187 0 45.550781-20.433594 45.550781-45.550782v-286.328125c0-25.117187-20.433594-45.550781-45.550781-45.550781zm-121.828125 441.304688h-177.242188l22.945313-63.875h131.351562zm0 0"/><path d="m171.746094 118.574219c0-6.765625-7.257813-10.921875-12.460938-10.921875-4.84375 0-8.984375 2.570312-11.394531 7.125l-47.496094 93.648437c-1.035156 1.667969-1.558593 3.660157-1.558593 5.925781 0 6.429688 4.332031 10.921876 10.535156 10.921876h43.617187v22.03125c0 5.996093 5.320313 10.34375 12.65625 10.34375 7.332031 0 12.65625-4.351563 12.65625-10.34375v-22.03125h5.648438c4.996093 0 10.34375-4.929688 10.34375-12.269532 0-7.113281-4.351563-12.273437-10.34375-12.273437h-5.648438v-27.8125c0-5.976563-5.207031-10.148438-12.65625-10.148438-7.453125 0-12.65625 4.171875-12.65625 10.148438v27.8125h-21.382812l38.820312-77.273438c.914063-1.578125 1.320313-3.09375 1.320313-4.882812zm0 0"/><path d="m302.285156 212.234375v-58.007813c0-29.597656-16.835937-46.574218-46.1875-46.574218-29.230468 0-45.996094 16.976562-45.996094 46.574218v58.007813c0 29.597656 16.765626 46.570313 45.996094 46.570313 29.351563 0 46.1875-16.972657 46.1875-46.570313zm-66.871094 0v-58.007813c0-15.34375 6.765626-22.804687 20.683594-22.804687 14.046875 0 20.875 7.460937 20.875 22.804687v58.007813c0 15.34375-6.828125 22.800781-20.875 22.800781-13.917968 0-20.683594-7.460937-20.683594-22.800781zm0 0"/><path d="m390.617188 118.574219c0-6.765625-7.257813-10.921875-12.464844-10.921875-4.84375 0-8.980469 2.570312-11.390625 7.125l-47.496094 93.648437c-1.035156 1.667969-1.558594 3.660157-1.558594 5.925781 0 6.429688 4.332031 10.921876 10.535157 10.921876h43.617187v22.03125c0 5.996093 5.320313 10.34375 12.65625 10.34375 7.332031 0 12.65625-4.351563 12.65625-10.34375v-22.03125h5.648437c4.996094 0 10.34375-4.929688 10.34375-12.269532 0-7.113281-4.351562-12.273437-10.34375-12.273437h-5.648437v-27.8125c0-5.976563-5.207031-10.148438-12.65625-10.148438-7.453125 0-12.65625 4.171875-12.65625 10.148438v27.8125h-21.378906l38.8125-77.273438c.914062-1.578125 1.324219-3.09375 1.324219-4.882812zm0 0"/></svg>