<svg height="512" viewBox="0 0 512 512" width="512" xmlns="http://www.w3.org/2000/svg" xmlns:xlink="http://www.w3.org/1999/xlink"><linearGradient id="linear-gradient" gradientUnits="userSpaceOnUse" x1="74.98" x2="437.02" y1="74.98" y2="437.02"><stop offset="0" stop-color="#ff6432"/><stop offset="1" stop-color="#f44336"/></linearGradient><g id="Layer_2" data-name="Layer 2"><g id="_04.trash" data-name="04.trash"><circle id="background" cx="256" cy="256" fill="url(#linear-gradient)" r="256"/><path d="m347.67 154.94v-.05h-42v-13.78a20.11 20.11 0 0 0 -20.12-20.11h-59.1a20.11 20.11 0 0 0 -20.11 20.11v13.78h-42v.05a26.86 26.86 0 0 0 -25.24 26.81v.83a26.86 26.86 0 0 0 25.24 26.81v142.53a39.08 39.08 0 0 0 39.07 39.08h105.18a39.08 39.08 0 0 0 39.08-39.08v-142.53a26.86 26.86 0 0 0 25.24-26.81v-.83a26.86 26.86 0 0 0 -25.24-26.81zm-113.45 175.49a11.8 11.8 0 0 1 -11.8 11.81 11.81 11.81 0 0 1 -11.81-11.81v-90a11.81 11.81 0 0 1 11.81-11.81 11.8 11.8 0 0 1 11.8 11.81zm67.17 0a11.81 11.81 0 0 1 -11.81 11.81 11.8 11.8 0 0 1 -11.8-11.81v-90a11.8 11.8 0 0 1 11.8-11.81 11.81 11.81 0 0 1 11.81 11.81z" fill="#fff"/></g></g></svg>